# xmcd
# 
# Track frame offsets:
#     150
#     18747
#     38685
# 
# Disc length: 762
# 
# Revision: 2
# Processed by: cddbd v1.5.2PL0 Copyright (c) Steve Scherf et al.
# Submitted via: fre:ac v1.0.31
# 
DISCID=1c02f803
DTITLE=中山美穂 and WANDS - 世界中の誰よりきっと
DYEAR=1992
DGENRE=J-POP
TTITLE0=世界中の誰よりきっと
TTITLE1=世界中の誰よりきっと <Part II>
TTITLE2=世界中の誰よりきっと <オリジナル・カラオケ>
EXTD=1992.10.28
EXTT0=
EXTT1=
EXTT2=
PLAYORDER=
